<svg width="2290" height="322" data-name="Layer 1" version="1.1" viewBox="0 0 3414.4 480.46" xmlns="http://www.w3.org/2000/svg"><path fill="#9a0069" transform="translate(-39 -47.808)" d="m1679.1 259.73h42.67v-184.15h-42.67zm74.971 268.54c52.563 0 78.073-26.338 78.073-56.97 0-67.586-107.04-44.221-107.04-78.192 0-11.559 9.772-21.1 35.041-21.1 16.328 0 33.851 4.768 51.014 14.545l13.111-32.424c-17.045-10.725-40.763-16.207-63.886-16.207-52.327 0-77.6 25.984-77.6 57.332 0 68.414 107.04 44.7 107.04 79.14 0 11.326-10.25 19.669-35.52 19.669-22.048 0-45.174-7.867-60.666-19.191l-14.543 32.064c16.331 12.63 45.772 21.332 74.973 21.332zm219.91 0c57.809 0 100.71-40.286 100.71-95.232s-42.9-95.113-100.71-95.113c-58.167 0-100.72 40.405-100.72 95.113s42.554 95.232 100.72 95.232zm0-36.234c-32.9 0-57.569-23.956-57.569-59 0-34.924 24.669-58.88 57.569-58.88s57.568 23.956 57.568 58.88c0 35.043-24.674 59-57.568 59zm156.26 33.137h134.92v-34.805h-92.375v-149.35h-42.549zm261.74 3.1c52.323 0 83.314-30.033 83.314-84.146v-103.1h-42.072v101.55c0 34.923-15.018 49.464-41 49.464-25.746 0-41.007-14.541-41.007-49.464v-101.55h-42.667v103.1c0 54.112 31.11 84.146 83.434 84.146zm183.91-3.1h42.55v-149.47h58.883v-34.682h-160.43v34.682h59zm147.8 0h42.553v-184.15h-42.553zm198.81 3.1c57.928 0 100.72-40.286 100.72-95.232s-42.79-95.113-100.72-95.113c-58.046 0-100.72 40.405-100.72 95.113s42.672 95.232 100.72 95.232zm0-36.234c-32.781 0-57.571-23.956-57.571-59 0-34.924 24.79-58.88 57.571-58.88 32.9 0 57.688 23.956 57.688 58.88 0 35.043-24.792 59-57.688 59zm283.08-151.02v111.8l-91.537-111.81h-35.284v184.15h42.072v-111.8l91.781 111.8h35.042v-184.15zm169.61 187.25c52.68 0 78.188-26.338 78.188-56.97 0-67.586-107.03-44.221-107.03-78.192 0-11.559 9.652-21.1 34.923-21.1 16.328 0 33.967 4.768 51.012 14.545l13.226-32.425c-17.161-10.725-40.765-16.207-64-16.207-52.327 0-77.593 25.984-77.593 57.332 0 68.414 107.15 44.7 107.15 79.14 0 11.326-10.37 19.669-35.519 19.669-22.166 0-45.293-7.867-60.786-19.191l-14.426 32.064c16.213 12.63 45.656 21.332 74.858 21.332zm-1483-452.69v111.8l-91.537-111.8h-35.28v184.15h42.073v-111.8l91.779 111.8h35.043v-184.15zm219.32 0-56.855 131.47-56.021-131.47h-46.006l79.381 184.15h42.074l79.738-184.15zm99.881 149.94v-42.67h85.461v-33.136h-85.461v-39.929h96.785v-34.208h-139.1v184.15h142.56v-34.207zm194.64 37.308c52.564 0 78.067-26.342 78.067-56.975 0-67.581-107.03-44.22-107.03-78.189 0-11.561 9.772-21.1 35.042-21.1 16.332 0 33.854 4.768 51.014 14.541l13.113-32.421c-17.043-10.726-40.768-16.329-63.889-16.329-52.326 0-77.592 26.1-77.592 57.451 0 68.417 107.03 44.7 107.03 79.142 0 11.205-10.252 19.667-35.52 19.667-22.049 0-45.172-7.866-60.668-19.189l-14.541 32.07c16.332 12.633 45.769 21.335 74.974 21.335zm142.79-3.1h42.667v-149.47h58.886v-34.684h-160.43v34.684h58.879v149.47zm331.83 0-0.478-184.15h-35.042l-67.82 114.42-68.771-114.42h-35.281v184.15h39.93v-108.11l53.874 88.56h19.19l54.111-90.944 0.357 110.49h39.93zm86.059-34.207v-42.67h85.461v-33.137h-85.461v-39.929h96.781v-34.208h-139.09v184.15h142.55v-34.207zm260.91-149.94v111.8l-91.537-111.8h-35.162v184.15h42.072v-111.8l91.777 111.8h34.929v-184.15zm123.96 184.15h42.555v-149.47h58.881v-34.684h-160.43v34.684h59z"/><polygon fill="#0077ca" points="825.52 15.972 926.36 15.972 926.36 480.46 816.94 480.46 816.94 158.64 664.73 307.76 512.76 158.64 512.76 480.46 402.99 480.46 402.99 15.972 503.82 15.972 664.73 176.76"/><path fill="#0077ca" transform="translate(-39 -47.808)" d="m194.43 312.65h-47.916v-161.26h47.916c65.674 0 98.81 29.8 98.81 80.931 0 50.418-33.135 80.334-98.81 80.334zm5.959-248.87h-161.38v464.49h107.51v-128.01h53.874c124.08 0 201.67-64.365 201.67-167.94 0-104.17-77.6-168.54-201.67-168.54z"/><path fill="#0077ca" transform="translate(-39 -47.808)" d="m1346.9 353.89h-83.555v-98.213h181.77v213.59c-51.134 38.382-121.46 59-187.72 59-146.01 0-253.52-100.24-253.52-240.17 0-140.05 107.51-240.29 255.43-240.29 81.646 0 149.35 27.892 194.52 80.335l-69.009 63.648c-33.85-35.757-73.064-52.445-120.14-52.445-90.23 0-151.97 60.43-151.97 148.75 0 86.891 61.74 148.63 150.66 148.63 29.2 0 56.379-5.362 83.555-19.907v-62.932z"/><path fill="#0077ca" transform="translate(-39 -47.808)" d="m1550.4 58.893a7.808 7.808 0 1 1 15.615 0v458.29a7.808 7.808 0 1 1-15.615 0z"/></svg>